<svg width="82" height="21" viewBox="0 0 82 21" fill="none" xmlns="http://www.w3.org/2000/svg">
<path d="M45.8156 18.8359C43.9217 20.8816 41.6618 21.0191 39.3264 20.4808C36.747 19.8887 34.8589 18.2857 33.7261 15.8213C31.3849 10.7252 34.3884 4.71398 39.797 3.79884C41.9639 3.43398 44.0902 3.68519 45.8156 5.56932C45.8156 5.13268 45.8272 4.78576 45.8156 4.44482C45.804 4.18763 45.8562 4.068 46.1467 4.07398C47.2912 4.09192 48.4298 4.09192 49.5743 4.07398C49.8531 4.07398 49.917 4.16968 49.917 4.43884C49.9112 9.63065 49.9112 14.8284 49.917 20.0202C49.917 20.3133 49.8183 20.3731 49.5627 20.3731C48.4182 20.3612 47.2796 20.3612 46.1351 20.3731C45.8795 20.3731 45.8039 20.2894 45.8214 20.0382C45.8388 19.6853 45.8214 19.3324 45.8214 18.8419L45.8156 18.8359ZM41.197 16.6827C43.608 16.6946 45.56 14.7148 45.589 12.2325C45.6122 9.76822 43.6661 7.74652 41.2493 7.73456C38.8326 7.71662 36.869 9.71439 36.8632 12.1787C36.8632 14.6669 38.7919 16.6707 41.197 16.6827Z" fill="#333333"/>
<path d="M20.7585 4.98989C23.1752 3.42278 25.6559 3.3211 28.1423 4.49344C30.0595 5.39662 30.9251 7.16112 31.2562 9.23664C31.3317 9.72113 31.3608 10.2116 31.3608 10.7021C31.3608 13.7705 31.355 16.8449 31.3666 19.9133C31.3666 20.2782 31.2852 20.3799 30.9251 20.3739C29.8445 20.35 28.7697 20.344 27.6892 20.3739C27.3 20.3859 27.1838 20.2842 27.1838 19.8655C27.2012 17.0543 27.1954 14.249 27.1896 11.4378C27.1896 10.9294 27.1838 10.4269 27.0734 9.93048C26.8003 8.69234 26.1323 7.83103 24.889 7.57383C23.5064 7.28075 22.298 7.59178 21.444 8.84188C20.9676 9.54169 20.7701 10.3492 20.7643 11.1985C20.7527 14.0875 20.7469 16.9825 20.7643 19.8715C20.7643 20.2782 20.6597 20.3918 20.2647 20.3799C19.1841 20.35 18.1094 20.356 17.0288 20.3799C16.7093 20.3859 16.6338 20.2902 16.6338 19.9672C16.6396 13.4475 16.6396 6.93383 16.6338 0.414164C16.6338 0.0971527 16.7093 0.0014512 17.023 0.00743255C18.1326 0.0313579 19.2422 0.0313579 20.3577 0.00743255C20.7062 0.0014512 20.7701 0.121078 20.7643 0.450052C20.7469 1.96333 20.7585 3.47661 20.7585 4.99587V4.98989Z" fill="#333333"/>
<path d="M12.2831 15.0383C13.0906 16.091 13.8865 17.1497 14.7056 18.1904C14.8799 18.4117 14.7463 18.4955 14.6185 18.6211C12.7304 20.3676 10.5054 21.199 7.98406 20.9598C3.98134 20.5889 0.95461 17.7239 0.158714 13.6625C-0.788228 8.85355 2.61612 3.91894 7.3334 3.23707C10.0522 2.8423 12.4457 3.56604 14.5255 5.40829C14.7986 5.65353 14.816 5.80306 14.5778 6.09615C13.7993 7.06513 13.0557 8.05803 12.2714 9.08682C11.1793 7.83074 9.83146 7.22064 8.21062 7.38812C7.00807 7.51373 6.00884 8.07597 5.21875 9.02102C3.6502 10.8872 3.79544 13.7283 5.52665 15.445C7.18816 17.0958 10.1626 17.4368 12.2772 15.0383H12.2831Z" fill="#333333"/>
<path d="M52.5887 10.1573C52.5887 6.92143 52.5945 3.68553 52.5771 0.449622C52.5771 0.078779 52.67 -0.0109411 53.0186 0.00102159C54.1282 0.024947 55.2378 0.0189656 56.3532 0.00102159C56.6089 0.00102159 56.7018 0.0548537 56.7018 0.341958C56.696 6.89153 56.6902 13.4471 56.7018 19.9967C56.7018 20.3256 56.574 20.3615 56.3068 20.3615C55.2146 20.3496 54.1166 20.3436 53.0186 20.3615C52.6642 20.3675 52.5713 20.2778 52.5713 19.9009C52.5887 16.6471 52.5829 13.3992 52.5829 10.1454L52.5887 10.1573Z" fill="#333333"/>
<path d="M68.5479 20.338C66.8632 20.338 65.283 20.338 63.697 20.338C63.5285 20.338 63.4414 20.2363 63.3543 20.1227C61.3907 17.5627 59.4271 15.0027 57.4577 12.4426C57.3299 12.2752 57.3124 12.1675 57.446 11.9881C59.4271 9.41608 61.3965 6.8441 63.3717 4.26614C63.4763 4.12857 63.5983 4.06876 63.7725 4.06876C65.2946 4.07474 66.8167 4.06876 68.3388 4.07474C68.3794 4.07474 68.4201 4.10464 68.5073 4.13455C67.6475 5.25306 66.8109 6.35363 65.9685 7.44822C64.8473 8.90766 63.7377 10.3791 62.599 11.8146C62.3434 12.1376 62.3841 12.317 62.6165 12.6161C64.4755 15.0146 66.3229 17.4251 68.1703 19.8296C68.2749 19.9672 68.3853 20.1107 68.5537 20.332L68.5479 20.338Z" fill="#333333"/>
<path d="M81.8804 11.946C79.911 9.40393 77.9533 6.8499 75.9955 4.30185C75.8909 4.17026 75.7863 4.06259 75.6062 4.06259C74.0377 4.06259 72.4749 4.06259 70.8076 4.06259C70.9412 4.24801 71.0051 4.33773 71.069 4.42745C72.9397 6.86186 74.7987 9.30823 76.6868 11.7247C76.9831 12.1075 76.9715 12.3168 76.6868 12.6937C74.8394 15.0623 73.0152 17.4548 71.191 19.8414C71.0981 19.967 70.9006 20.0926 70.9645 20.2361C71.0051 20.3318 71.0807 20.3498 71.1678 20.3498L74.7232 20.3618C74.7581 20.3618 74.7987 20.3618 74.8336 20.3618C74.8452 20.3618 74.8568 20.3618 74.8742 20.3618H74.9149C75.6818 20.3079 76.2278 19.9371 76.7507 19.2074C78.3715 16.9464 80.1144 14.7812 81.8049 12.574C81.9502 12.3826 82.1128 12.2331 81.8921 11.946H81.8804Z" fill="#35A3DB"/>
</svg>
